<?xml version="1.0" encoding="utf-8"?> <!-- Generator: IcoMoon.io --> <!DOCTYPE svg PUBLIC "-//W3C//DTD SVG 1.1//EN" "http://www.w3.org/Graphics/SVG/1.1/DTD/svg11.dtd"> <svg xmlns:xlink="http://www.w3.org/1999/xlink" xmlns="http://www.w3.org/2000/svg" style="fill:#eee;" data-du="" viewBox="0 0 512 512" height="40" width="40"><path d="M 477.501,317.562c-23.658,2.445-30.063,32.369-31.188,39.058c 2.688-6.976, 29.196-19.654, 34.347-5.060 c 5.521,15.614-4.354,37.674-40.188,34.912c-35.838-2.754-48.236-34.908-92.345-69.827c-44.104-34.918-92.806,0-92.806,0 s-48.001-34.918-92.109,0c-44.104,34.914-56.169,67.072-91.989,69.827c-35.841,2.766-45.542-19.293-40.033-34.912 c 5.153-14.602, 31.75-1.91, 34.45,5.063c-1.134-6.668-7.49-36.609-31.161-39.057c-26.65-2.762-32.774,27.328-32.774,42.028 c0,14.695, 3.503,77.402, 111,77.402c 107.496,0, 142.614-67.937, 142.614-67.937S 291.11,437, 398.617,437 c 107.5,0, 111.68-62.707, 111.68-77.402C 510.296,344.896, 504.142,314.806, 477.501,317.562zM 508.732,146.428l-6.031,0 c-4.15,1.413-6.34,3.133-7.568,5.215l0,26.214 c0,13.326-3.629,25.575-9.695,35.295 c-3.871,7.42-9.555,13.207-16.261,16.369c-5.876,3.508-12.441,5.478-19.379,5.478L 319.468,235 c-25.037,0-45.334-25.583-45.334-57.143 l0-19.078 c-14.232-18.327-28.695-6.662-35.132,0.461l0,18.617 C 239,209.417, 218.704,235, 193.667,235L 63.333,235 c-6.89,0-13.416-1.947-19.263-5.411c-6.81-3.169-12.57-9.047-16.47-16.589C 21.59,203.306, 18,191.113, 18,177.857l0-15.714 l0-7.856 c-0.967-2.958-3.36-6.039-8.702-7.857L 3.268,146.43 C 2.015,146.428, 1,144.83, 1,142.857l0-35.714 c0-1.973, 1.015-3.571, 2.268-3.571l 20.714,0 C 28.463,86.959, 40.958,75, 55.683,75l 7.651,0 l 130.332,0 l 4.86,0 c 10.035,0, 19.032,5.56, 25.168,14.355c 3.782,4.224, 7.004,9.227, 9.498,14.816 c 18.894,5.565, 35.006,3.422, 47.033-0.628c 2.439-5.306, 5.537-10.071, 9.148-14.121C 295.51,80.589, 304.527,75, 314.588,75l 4.877,0 l 130.334,0 l 7.633,0 c 14.725,0, 27.221,11.959, 31.703,28.571l 19.6,0 c 1.252,0, 2.266,1.599, 2.266,3.571l0,35.715 C 511,144.83, 509.983,146.428, 508.732,146.428z M 63.281,91.842c-16.524,0-29.918,14.812-29.918,33.083l0,57.343 c0,18.271, 13.396,33.084, 29.918,33.084l 127.648,0 c 16.524,0, 29.917-14.812, 29.917-33.084l0-57.343 c0-18.271-13.395-33.083-29.917-33.083L 63.281,91.842 L 63.281,91.842z M 292.269,124.925l0,57.343 c0,18.271, 13.395,33.084, 29.916,33.084 l 127.648,0 c 16.524,0, 29.918-14.812, 29.918-33.084l0-57.343 c0-18.271-13.395-33.083-29.918-33.083L 322.188,91.842 C 305.664,91.842, 292.269,106.653, 292.269,124.925z"></path></svg>